<svg width="24" height="24" viewBox="0 0 24 24" fill="none" xmlns="http://www.w3.org/2000/svg">
<path d="M11.25 3.87328C11.25 3.28501 10.5332 2.99665 10.1258 3.42101L2.68418 11.1727C2.44157 11.4254 2.44157 11.8246 2.68418 12.0773L10.1258 19.829C10.5332 20.2534 11.25 19.965 11.25 19.3767V15.9559C11.25 15.758 11.1603 15.5708 11.006 15.4468L8.25 13.2321L6.88351 12.1341C6.55819 11.8727 6.55819 11.3774 6.8835 11.1159L8.25 10.0179L11.006 7.80321C11.1603 7.67925 11.25 7.49203 11.25 7.29414V3.87328Z" fill="#92CEE3"/>
<path d="M8.25 10.0179L6.8835 11.1159C6.55819 11.3774 6.55819 11.8727 6.88351 12.1341L8.25 13.2321L20.3141 13.8404C20.6872 13.8592 21 13.5618 21 13.1882V10.0618C21 9.68823 20.6872 9.39077 20.3141 9.40959L8.25 10.0179Z" fill="#92CEE3"/>
</svg>
