<svg width="103" height="103" viewBox="0 0 103 103" fill="none" xmlns="http://www.w3.org/2000/svg">
<g filter="url(#filter0_d_175_128)">
<path fill-rule="evenodd" clip-rule="evenodd" d="M33.7909 42.1457C34.2996 40.7233 35.0994 39.3894 36.1904 38.2453C40.2785 33.9581 46.9065 33.9581 50.9945 38.2453L51.5125 38.7885L43.7011 47.0074C40.0305 50.8695 33.7909 50.5515 33.7909 42.1457Z" fill="url(#paint0_radial_175_128)"/>
<path d="M35.0702 54.9609C38.3609 61.6234 45.4318 65.5533 47.8709 66.7523C48.4329 67.0286 48.994 67.3005 49.5792 67.5234C50.2272 67.7702 50.8725 67.932 51.5125 68C52.4025 67.9055 53.2776 67.5995 54.1811 67.166C54.2481 67.1339 54.3135 67.1038 54.3813 67.0738C55.4128 66.6174 64.1565 62.5706 67.9298 54.931C70.1353 50.4658 70.6064 46.023 69.2091 42.1158C68.7004 40.6934 67.9006 39.3595 66.8096 38.2154C62.7215 33.9282 56.0935 33.9282 52.0055 38.2154L51.5125 38.7885L43.7011 47.0074C40.0305 50.8695 33.7909 50.5515 33.7909 42.1457C32.3936 46.0528 32.8647 50.4957 35.0702 54.9609Z" fill="#F220C4"/>
</g>
<defs>
<filter id="filter0_d_175_128" x="11.4" y="20.4" width="80.2" height="76.2" filterUnits="userSpaceOnUse" color-interpolation-filters="sRGB">
<feFlood flood-opacity="0" result="BackgroundImageFix"/>
<feColorMatrix in="SourceAlpha" type="matrix" values="0 0 0 0 0 0 0 0 0 0 0 0 0 0 0 0 0 0 127 0" result="hardAlpha"/>
<feOffset dy="7"/>
<feGaussianBlur stdDeviation="10.8"/>
<feComposite in2="hardAlpha" operator="out"/>
<feColorMatrix type="matrix" values="0 0 0 0 0.956863 0 0 0 0 0.211765 0 0 0 0 0.431373 0 0 0 0.3 0"/>
<feBlend mode="normal" in2="BackgroundImageFix" result="effect1_dropShadow_175_128"/>
<feBlend mode="normal" in="SourceGraphic" in2="effect1_dropShadow_175_128" result="shape"/>
</filter>
<radialGradient id="paint0_radial_175_128" cx="0" cy="0" r="1" gradientUnits="userSpaceOnUse" gradientTransform="translate(45.803 45.1035) rotate(-132.967) scale(11.6841 13.5193)">
<stop stop-color="#DF1ACB"/>
<stop offset="1" stop-color="#F436CA"/>
</radialGradient>
</defs>
</svg>
