<svg width="194" height="48" viewBox="0 0 194 48" fill="none" xmlns="http://www.w3.org/2000/svg">
<rect width="194" height="48" rx="24" fill="url(#paint0_linear_137_192)"/>
<path d="M72.9852 32V17.3H75.7992L84.4722 27.884H83.1072V17.3H86.4672V32H83.6742L74.9802 21.416H76.3452V32H72.9852ZM95.3211 32.168C94.0331 32.168 92.8991 31.916 91.9191 31.412C90.9531 30.908 90.2041 30.222 89.6721 29.354C89.1401 28.472 88.8741 27.471 88.8741 26.351C88.8741 25.217 89.1331 24.216 89.6511 23.348C90.1831 22.466 90.9041 21.78 91.8141 21.29C92.7241 20.786 93.7531 20.534 94.9011 20.534C96.0071 20.534 97.0011 20.772 97.8831 21.248C98.7791 21.71 99.4861 22.382 100.004 23.264C100.522 24.132 100.781 25.175 100.781 26.393C100.781 26.519 100.774 26.666 100.76 26.834C100.746 26.988 100.732 27.135 100.718 27.275H91.5411V25.364H98.9961L97.7361 25.931C97.7361 25.343 97.6171 24.832 97.3791 24.398C97.1411 23.964 96.8121 23.628 96.3921 23.39C95.9721 23.138 95.4821 23.012 94.9221 23.012C94.3621 23.012 93.8651 23.138 93.4311 23.39C93.0111 23.628 92.6821 23.971 92.4441 24.419C92.2061 24.853 92.0871 25.371 92.0871 25.973V26.477C92.0871 27.093 92.2201 27.639 92.4861 28.115C92.7661 28.577 93.1511 28.934 93.6411 29.186C94.1451 29.424 94.7331 29.543 95.4051 29.543C96.0071 29.543 96.5321 29.452 96.9801 29.27C97.4421 29.088 97.8621 28.815 98.2401 28.451L99.9831 30.341C99.4651 30.929 98.8141 31.384 98.0301 31.706C97.2461 32.014 96.3431 32.168 95.3211 32.168ZM101.227 32L106.288 25.364L106.225 27.17L101.374 20.702H105.049L108.115 24.923L106.729 24.965L109.9 20.702H113.386L108.514 27.107V25.343L113.554 32H109.837L106.624 27.506L107.989 27.695L104.797 32H101.227ZM119.764 32.168C118.434 32.168 117.398 31.832 116.656 31.16C115.914 30.474 115.543 29.459 115.543 28.115V18.203H118.819V28.073C118.819 28.549 118.945 28.92 119.197 29.186C119.449 29.438 119.792 29.564 120.226 29.564C120.744 29.564 121.185 29.424 121.549 29.144L122.431 31.454C122.095 31.692 121.689 31.874 121.213 32C120.751 32.112 120.268 32.168 119.764 32.168ZM113.8 23.474V20.954H121.633V23.474H113.8Z" fill="white"/>
<defs>
<linearGradient id="paint0_linear_137_192" x1="0" y1="24" x2="194" y2="24" gradientUnits="userSpaceOnUse">
<stop stop-color="#9515C2"/>
<stop offset="1" stop-color="#D21A88"/>
</linearGradient>
</defs>
</svg>
