<svg width="32" height="32" viewBox="0 0 32 32" fill="none" xmlns="http://www.w3.org/2000/svg">
<path d="M6.09052 11.3927C6.85446 7.26058 5.20502 3.89152 4.34104 1.91897C3.82266 1.15277 3.89769 1.98738 4 2.50046C5.47331 5.26431 5.77221 7.35635 5.68126 8.86141C5.98138 11.9263 4.37393 15.543 3.53268 16.9682C2.79603 18.1997 2.58913 19.9898 2.57776 20.7309C2.85059 27.9552 8.55741 28.4158 11.3767 27.7431C12.4681 27.1685 14.7872 26.8196 15.8103 26.7169C17.0108 26.7443 21.3125 27.6405 23.3133 28.0852C27.0648 28.2562 31.9758 22.9543 28.0879 15.9078C24.9776 10.2707 26.7704 4.9519 28.1119 2.19262C28.3301 1.39904 27.8163 1.86196 27.5321 2.19262C25.4585 6.68045 25.7574 9.40872 26.1098 11.0164C27.0648 14.5191 23.0291 17.3559 20.8919 18.3365C18.8195 19.3541 17.8346 21.6808 17.4573 23.3648C17.3578 23.8091 17.3005 24.2088 17.2768 24.5278C17.495 25.3761 16.6174 25.8162 16.1513 25.9302C14.9781 25.8481 14.7303 24.9611 14.7531 24.5278C14.7313 24.1201 14.6844 23.7325 14.6168 23.3648C14.0896 20.4988 12.3036 18.8418 11.3767 18.3365C6.19283 15.901 5.69263 12.6925 6.09052 11.3927Z" fill="#8347CF"/>
<path d="M14.6168 23.3648C14.6844 23.7325 14.7313 24.1201 14.7531 24.5278C17.8361 17.7139 11.9906 15.2807 8.68246 14.9159C11.4791 15.2921 16.5813 17.5087 14.6168 23.3648Z" fill="#331953"/>
<path d="M17.2768 24.5278C17.3005 24.2088 17.3578 23.8091 17.4573 23.3648C15.9101 17.3171 20.8758 15.2123 23.552 14.9159C20.4712 15.0299 14.9031 17.1119 17.2768 24.5278Z" fill="#331953"/>
</svg>
