<svg width="32" height="32" viewBox="0 0 32 32" fill="none" xmlns="http://www.w3.org/2000/svg">
<path d="M0.363676 19.0184C0.581858 19.3093 1.41822 19.2729 1.70913 19.2366C1.41822 19.0547 1.09095 19.0547 0.872767 18.8002C1.38186 18.2911 3.12731 19.2729 3.92731 19.1275C3.96368 19.1275 4.47277 18.9093 4.47277 18.9093C4.61822 18.6184 4.21822 18.4366 4.25459 18.2911C4.36368 17.8911 5.2364 18.0366 5.67277 18.0366C6.14549 18.0366 6.80004 18.1093 7.16368 17.8184C7.56368 17.4911 7.6364 17.1275 8.14549 16.8729C9.09095 16.3638 9.81822 16.182 10.5819 15.382C10.9819 14.9457 11.0546 14.8366 11.6728 14.9457C11.8909 14.982 11.8546 15.2729 12.1455 15.2002C12.3637 15.1638 12.3637 14.8366 12.5091 14.7275C12.9819 14.3638 13.3091 14.582 13.8182 14.4366C14.3273 14.2911 14.6182 13.6366 14.8728 13.2002C15.3819 13.2366 15.4909 13.8911 16.1091 13.8911C16.6546 13.9275 17.0546 13.5275 17.6 13.4547C18.291 13.382 18.691 13.5638 19.3455 13.2366C19.8182 12.982 20.2909 12.5093 20.8364 12.4366C21.1637 13.1275 20.6909 14.2911 21.4909 14.3638C21.7455 14.4002 23.7819 13.5275 23.0182 14.5457C23.5273 14.5457 24.4728 14.7638 24.7273 14.4002C24.5819 15.0911 25.1273 15.2002 25.7091 15.2002C26.2546 15.1638 26.6546 15.1275 27.2 15.2002C27.7819 15.2729 28.1819 15.2366 28.5455 14.8729C28.8728 14.5457 29.0182 13.9275 29.5273 13.8547C29.6 14.2911 28.8364 15.4911 30 15.0184C30.5091 14.8002 30.6909 14.0729 30.9819 13.6729C31.0909 13.9275 31.1273 14.182 31.1273 14.4729C31.8182 14.6911 31.9637 13.8184 31.8909 13.3093C31.7455 13.4184 31.6364 13.4547 31.6364 13.7457C31.1637 13.5275 31.4182 12.9456 31.2728 12.582C31.1273 12.8002 31.3819 12.9457 31.1273 13.0547C30.3637 12.4002 29.9637 11.4911 29.0909 10.9457C28.6182 10.6547 28.1091 10.4002 27.6364 10.1456C27.1637 9.85474 26.8364 9.45474 26.3637 9.12747C25.5637 8.58201 24.5819 8.21838 23.6364 7.92747C22.5455 7.60019 22.0364 6.98201 21.2 6.2911C20.4 5.63656 19.2 5.2002 18.1819 5.2002C17.6364 5.2002 17.1637 5.30929 16.6546 5.6002C16.1819 5.85474 15.8546 6.36383 15.3819 6.58201C14.2546 7.0911 13.2 6.21838 12.1819 6.14565C10.9819 6.07292 9.85459 6.94565 8.9455 7.63656C7.45459 8.76383 6.0364 10.3638 5.01822 11.9275C4.76368 12.2911 4.54549 12.7275 4.21822 13.0184C3.89095 13.3093 3.38186 13.4547 3.12731 13.782C2.90913 14.0366 2.72731 14.582 2.69095 14.9093C2.61822 15.4184 2.8364 15.5275 2.87277 15.9275C2.50913 16.0002 2.00004 15.7093 1.78186 15.9275C2.58186 16.5093 1.2364 16.5093 0.945495 16.7638C0.727313 16.9457 0.145494 17.7457 0.109131 18.0002C0.654585 18.2911 0.145494 18.7275 0.363676 19.0184ZM27.7455 12.582L27.7819 12.6547C28.6182 12.5093 27.8546 13.6729 27.5637 13.8911C27.1637 13.6366 27.2364 12.6911 27.7455 12.582ZM23.1273 13.6729C23.2 12.9456 23.8909 12.4002 24.0364 11.6729C24.2182 10.7275 24.6909 11.6729 24.3273 12.2911C24.1455 12.7275 23.7091 14.0002 23.1273 13.6729ZM15.7819 10.0002C15.891 9.4911 16.2546 9.67292 16.4364 9.92747C16.5819 10.1093 16.5819 10.6547 16.6182 10.9093C16.691 11.6366 16.8728 12.4366 16.8 13.1638C16.2182 13.2002 15.1637 10.1456 15.7819 10.0002ZM15.4182 7.63656C16.0364 6.94565 16.4364 8.94565 16.2546 9.12747C15.7455 9.56383 14.9455 8.14565 15.4182 7.63656ZM14.1091 10.8366C14.2546 10.6184 14.5091 10.5457 14.7637 10.582C14.7273 11.0184 15.0182 11.4184 14.9455 11.8547C14.5455 11.9638 14.1091 11.2002 14.1091 10.8366ZM12.8 11.7457C12.9455 11.0184 13.4546 11.782 13.5637 12.0002C13.7091 12.2911 13.8182 12.7275 13.891 13.0184C13.3091 13.2002 12.691 12.2184 12.8 11.7457ZM11.4182 12.182C11.4546 12.0729 11.5637 12.0729 11.6728 12.2547C11.8546 12.5093 12.2182 12.8366 12.4364 13.1638C12.5455 13.382 12.6182 13.6002 12.5455 13.8184C12.1455 14.9457 11.4546 13.6729 11.3819 13.2002C11.3455 13.0547 11.3091 12.4002 11.4182 12.182ZM6.58186 13.7457C5.92731 13.9275 5.01822 13.3093 5.16368 12.5457C5.38186 12.4729 5.6364 12.5093 5.74549 12.6547C5.67277 12.6184 5.60004 12.6547 5.56368 12.6184C5.52731 12.8366 6.47277 13.3093 6.58186 13.7457ZM5.41822 14.582C5.89095 14.2547 6.76368 15.0184 6.69095 15.6002C6.29095 15.6729 5.52731 15.0184 5.41822 14.582ZM4.94549 16.6547C5.20004 16.982 5.85459 17.1275 5.85459 17.6002C5.34549 17.782 4.98186 17.1275 4.94549 16.6547Z" fill="#A016B7"/>
<path d="M3.78186 22.6914C4.18186 22.8732 4.43641 23.2368 4.80004 23.4914C5.20004 23.7459 5.67277 23.855 6.18186 24.0005C6.36368 24.8732 10.4 26.3277 10.4728 25.2368C10.9819 25.3459 11.4546 26.2186 11.891 26.5095C12.4728 26.9095 13.2 26.8005 13.891 26.8005C15.5273 26.8005 16.9455 26.7277 18.5091 26.4368C19.6 26.2186 20.9091 26.5095 21.8182 25.7823C22.2182 25.4914 22.3273 25.0186 22.5819 24.6186C22.9091 24.1459 23.2 24.0368 23.6728 23.7459C24.1091 23.5277 24.3637 23.055 24.7637 22.8368C25.2728 22.5459 25.6 22.6914 26.0728 22.255C26.4364 21.9277 26.7273 21.7459 26.6546 21.2732C26.5455 20.655 25.6364 20.5095 25.8182 19.7823C26.4 19.855 26.5455 20.9459 27.0546 21.0186C27.3819 21.055 28 20.2914 28.1455 20.0368C28.4364 19.6005 28.4 18.9459 28.7637 18.5459C29.1637 18.0732 29.6364 18.1823 29.5273 17.3823C28.9455 17.2368 29.2728 16.7641 28.9091 16.4732C28.4364 16.0732 28.1819 16.655 27.7819 16.655C27.3455 16.655 27.2364 16.1459 26.8364 16.0368C26.291 15.8914 26.0364 16.4368 25.6 16.4005C25.2364 16.3641 25.0182 15.8914 24.7637 15.6732C24.3637 15.3459 24.3273 15.455 23.8546 15.455C23.2728 15.4186 21.9273 14.9095 21.6 15.8186C21.4546 16.255 20.8364 16.0368 20.8728 16.4732C20.9091 16.8732 21.5273 16.7641 21.3455 17.3823C20.7637 17.1277 20.5819 16.5459 19.9637 17.055C19.3819 17.5277 19.2364 17.9277 18.3273 17.8186C17.6728 17.7459 17.2 17.5641 17.2364 18.3277C17.2364 18.7277 17.9637 19.7823 17.1273 19.8914C17.1273 19.4914 16.9091 18.1095 16.5819 17.8914C16.1819 17.6005 14.8364 17.8914 14.6546 18.255C14.8 18.5095 14.9819 18.8732 15.0182 19.1641C14.5091 19.055 14.6182 18.0368 13.8546 18.255C13.7819 18.655 14.0364 19.0914 13.8546 19.4914C13.4546 20.2186 13.1637 19.3459 12.9819 18.9095C12.691 18.2186 12.5455 18.2186 11.9637 17.9277C10.9091 17.3823 10.4364 16.6186 9.23641 17.4914C8.69095 17.8914 8.40004 18.1095 7.81822 18.3641C7.30913 18.5823 7.16368 19.0186 6.72731 19.3459C6.36368 19.6368 5.81822 19.7459 5.3455 19.855C4.65459 20.0732 4.65459 20.1459 4.50913 20.8732C4.40004 20.6186 4.18186 20.5095 3.92731 20.5823C3.81822 21.0914 3.63641 21.455 3.45459 21.855C3.16368 22.5459 3.20004 22.4005 3.78186 22.6914ZM20.4 20.7641C20.1455 20.7277 20 20.5459 19.7819 20.4732C19.7455 20.8368 19.891 21.2368 19.5273 21.3823C19.2 21.0914 18.7273 20.3641 18.8364 19.8914C19.0546 19.0186 19.3455 20.1823 19.8546 20.0732C19.8546 19.9641 19.9273 19.8914 19.9273 19.7823C19.9637 19.7823 20.0364 19.6005 20.0364 19.5641C20.1819 19.9641 20.4728 20.2186 20.4 20.7641ZM18.8364 22.255C18.8728 22.4368 18.9819 22.6914 19.1637 22.6914C19.6728 22.7277 19.3091 22.2914 19.491 22.1095C19.7819 21.7823 20.3273 21.7459 20.5091 22.255C20.5819 21.4914 21.4182 21.9277 21.4546 21.2368C21.5273 21.2368 21.5637 21.2368 21.6364 21.2005C21.7091 20.7641 21.6 20.0368 21.4546 19.6005C21.3455 19.2368 20.6182 18.5823 20.8728 18.1823C21.4546 17.2368 22 20.0005 22.0364 20.4005C22.0728 20.8005 21.9637 21.1277 22.1455 21.6368C22.3273 22.0732 22.5455 22.4732 22.6182 22.9095C22.2182 22.6186 22.2182 22.1459 21.9273 21.8914C22.0728 22.655 21.491 22.1823 21.2 22.4005C20.9091 22.655 21.2728 23.2368 21.0546 23.455C20.5819 23.855 20.5819 22.6914 20.4728 22.6186C20.0728 22.4005 19.891 22.8368 19.9637 23.1641C19.891 23.1277 19.7819 23.1277 19.7091 23.055C19.7091 23.5277 19.891 24.0005 19.8182 24.4368C19.2 24.2186 19.3091 22.4732 18.4728 23.2005C18.4364 22.8368 18.1091 22.0732 18.8364 22.255ZM17.891 20.2914L18.0364 20.4732C18.291 20.4732 18.4364 21.8914 17.9273 21.6368C17.5273 21.4914 17.8182 20.5095 17.891 20.2914ZM15.6728 19.6005C16.0728 19.5277 15.9273 19.7823 16 20.0368C16.1091 20.4368 16 20.9095 15.9273 21.2732C15.3819 21.1641 15.491 20.4368 15.4182 20.0005C15.3455 19.7095 15.4182 19.6368 15.6728 19.6005ZM9.49095 20.8005C9.63641 20.5459 9.81822 20.3641 9.89095 20.1095C10 19.855 9.70913 19.3095 10.0364 19.3459C10.3273 19.1641 10.5819 19.5277 10.5455 19.855C9.45459 20.1459 10.291 22.8005 9.45459 22.7277C9.30913 22.0732 9.20004 21.3823 9.49095 20.8005ZM8.47277 21.2005L8.32731 21.3459C8.69095 21.3095 8.69095 22.3277 8.29095 22.1095C7.92731 21.9277 8.10913 21.2732 8.47277 21.2005ZM6.58186 20.6186C6.76368 20.9095 6.72731 21.2368 6.65459 21.5641C6.90913 21.1277 6.69095 20.6186 6.98186 20.1459C7.20004 19.7823 7.63641 19.7095 7.70913 19.2732C7.7455 19.3823 7.89095 19.2732 7.85459 19.3095C7.85459 20.1459 7.70913 20.8732 7.78186 21.7095C7.81822 21.9277 7.96368 22.7641 7.52731 22.6186C7.23641 22.5095 7.38186 21.8914 7.20004 21.7095C7.12731 22.1459 6.61822 22.3641 6.18186 22.2914C6.18186 22.6186 6.29095 23.0186 5.85459 22.9823C5.49095 22.3641 5.89095 20.9459 6.58186 20.6186Z" fill="#A016B7"/>
</svg>
