<svg width="44" height="44" viewBox="0 0 44 44" fill="none" xmlns="http://www.w3.org/2000/svg">
<rect width="44" height="44" rx="22" fill="#252525" fill-opacity="0.2"/>
<path d="M30.3499 18.9229L29.9837 18.7192C29.9269 18.6876 29.8989 18.6717 29.8714 18.6552C29.5983 18.4917 29.3682 18.2656 29.2002 17.9952C29.1833 17.968 29.1674 17.9395 29.1348 17.8831C29.1023 17.8268 29.0858 17.7982 29.0706 17.77C28.92 17.4887 28.8385 17.1752 28.8336 16.8561C28.8331 16.824 28.8332 16.7912 28.8343 16.726L28.8415 16.3008C28.8529 15.6203 28.8587 15.2789 28.763 14.9726C28.6781 14.7005 28.536 14.4499 28.3462 14.2373C28.1317 13.9969 27.8347 13.8253 27.2402 13.4828L26.7464 13.1982C26.1536 12.8566 25.8571 12.6857 25.5423 12.6206C25.2639 12.5629 24.9765 12.5656 24.6991 12.6279C24.3859 12.6982 24.0931 12.8735 23.5079 13.224L23.5045 13.2255L23.1507 13.4374C23.0948 13.4709 23.0665 13.4878 23.0384 13.5034C22.7601 13.6581 22.4495 13.7437 22.1312 13.7539C22.0992 13.7549 22.0665 13.7549 22.0013 13.7549C21.9365 13.7549 21.9024 13.7549 21.8704 13.7539C21.5515 13.7436 21.2402 13.6576 20.9615 13.5022C20.9334 13.4866 20.9056 13.4696 20.8496 13.4359L20.4935 13.2221C19.9042 12.8684 19.6091 12.6912 19.2943 12.6206C19.0157 12.5581 18.7274 12.5563 18.4479 12.6147C18.1324 12.6806 17.8358 12.8528 17.2426 13.197L17.2399 13.1982L16.7523 13.4812L16.7469 13.4845C16.159 13.8257 15.8644 13.9967 15.6517 14.2361C15.4629 14.4486 15.3218 14.6988 15.2374 14.9702C15.1419 15.2769 15.147 15.619 15.1585 16.3027L15.1657 16.7274C15.1668 16.7917 15.1686 16.8236 15.1682 16.8552C15.1634 17.175 15.0809 17.4891 14.9297 17.771C14.9148 17.7988 14.8987 17.8267 14.8665 17.8824C14.8344 17.9381 14.8188 17.9658 14.8021 17.9927C14.6334 18.2645 14.4021 18.4919 14.1273 18.6557C14.1001 18.6719 14.0715 18.6875 14.0152 18.7187L13.6536 18.9191C13.0521 19.2524 12.7514 19.4193 12.5326 19.6567C12.339 19.8667 12.1928 20.1158 12.1035 20.3872C12.0026 20.6939 12.0027 21.0378 12.0042 21.7255L12.0055 22.2877C12.0071 22.9708 12.0092 23.3122 12.1103 23.6168C12.1998 23.8863 12.3449 24.134 12.5374 24.3427C12.755 24.5787 13.0527 24.7445 13.6497 25.0766L14.0081 25.276C14.0691 25.3099 14.0998 25.3266 14.1292 25.3444C14.4015 25.5083 14.6309 25.735 14.7982 26.0053C14.8163 26.0345 14.8336 26.0648 14.8683 26.1255C14.9026 26.1853 14.9201 26.2152 14.9359 26.2452C15.0826 26.5229 15.1611 26.8315 15.1665 27.1455C15.1671 27.1794 15.1666 27.2137 15.1654 27.2827L15.1585 27.6902C15.147 28.3763 15.1419 28.7197 15.2379 29.0273C15.3229 29.2994 15.4648 29.55 15.6546 29.7627C15.8692 30.0031 16.1666 30.1745 16.7611 30.5171L17.2548 30.8015C17.8476 31.1432 18.1439 31.3138 18.4587 31.379C18.7371 31.4366 19.0246 31.4344 19.3021 31.3721C19.6157 31.3017 19.9095 31.1258 20.4964 30.7743L20.8502 30.5625C20.9062 30.5289 20.9346 30.5121 20.9626 30.4965C21.2409 30.3418 21.5512 30.2558 21.8695 30.2456C21.9015 30.2446 21.9342 30.2446 21.9994 30.2446C22.0648 30.2446 22.0974 30.2446 22.1295 30.2456C22.4484 30.2559 22.7607 30.3422 23.0394 30.4975C23.0639 30.5112 23.0885 30.526 23.1316 30.5519L23.5078 30.7777C24.0971 31.1315 24.3916 31.3081 24.7065 31.3788C24.985 31.4413 25.2736 31.4438 25.5531 31.3855C25.8685 31.3196 26.1657 31.1471 26.7586 30.803L27.2536 30.5157C27.8418 30.1743 28.1367 30.0031 28.3495 29.7636C28.5383 29.5512 28.6796 29.3011 28.764 29.0297C28.8588 28.7252 28.8531 28.3858 28.8417 27.7119L28.8343 27.2724C28.8332 27.2081 28.8331 27.1761 28.8336 27.1445C28.8383 26.8247 28.9195 26.5104 29.0706 26.2286C29.0856 26.2007 29.1018 26.1726 29.1338 26.1171C29.166 26.0615 29.1827 26.0337 29.1994 26.0068C29.3681 25.7349 29.5995 25.5074 29.8744 25.3435C29.9012 25.3275 29.9289 25.3122 29.9838 25.2818L29.9857 25.2809L30.3472 25.0805C30.9488 24.7472 31.2501 24.5801 31.4689 24.3427C31.6625 24.1327 31.8085 23.8839 31.8978 23.6126C31.9981 23.3077 31.9973 22.9658 31.9958 22.2861L31.9945 21.7119C31.9929 21.0287 31.9921 20.6874 31.891 20.3828C31.8015 20.1133 31.6555 19.8656 31.463 19.6568C31.2457 19.4211 30.9475 19.2553 30.3517 18.9238L30.3499 18.9229Z" stroke="white" stroke-width="2" stroke-linecap="round" stroke-linejoin="round"/>
<path d="M18.0003 22C18.0003 24.2091 19.7912 26 22.0003 26C24.2095 26 26.0003 24.2091 26.0003 22C26.0003 19.7908 24.2095 18 22.0003 18C19.7912 18 18.0003 19.7908 18.0003 22Z" stroke="white" stroke-width="2" stroke-linecap="round" stroke-linejoin="round"/>
</svg>
