<svg width="27" height="28" viewBox="0 0 27 28" fill="none" xmlns="http://www.w3.org/2000/svg">
<path d="M9.03317 19.0657C9.60852 19.0657 10.1739 19.0098 10.7251 18.9039C9.52851 17.9232 8.54548 16.6678 7.87895 15.2029C7.67482 15.1564 7.47304 15.0988 7.27361 15.0276C4.54866 14.0581 3.1203 11.0513 4.09039 8.32508C4.83398 6.23838 6.82063 4.83588 9.03376 4.83588C9.63087 4.83588 10.2227 4.93883 10.7927 5.14179C13.5183 6.11248 14.9466 9.1187 13.976 11.8443C13.9024 12.0508 13.8165 12.2496 13.7201 12.4426C13.7218 12.4473 13.7236 12.4526 13.7259 12.4579C14.2636 13.6974 15.3973 14.5463 16.7068 14.7452C17.0198 14.2304 17.2839 13.6792 17.4916 13.0974C19.1517 8.43274 16.708 3.28806 12.0446 1.62729C11.0722 1.28137 10.0586 1.10547 9.03376 1.10547C5.24578 1.10547 1.84666 3.50455 0.575377 7.07435C-0.900046 11.2189 0.865402 15.7435 4.54984 17.8649L3.44916 20.9565L3.07501 20.167C2.69203 19.3616 1.72901 19.018 0.923054 19.4004C0.117101 19.7828 -0.22587 20.747 0.157105 21.5524L2.2567 25.9729C2.53319 26.5553 3.11207 26.8953 3.71624 26.8953C3.94861 26.8953 4.18393 26.8453 4.40806 26.7389L8.60784 24.7439C9.41379 24.3615 9.75677 23.3973 9.37438 22.5925C8.99199 21.786 8.02897 21.443 7.22301 21.8265L6.43412 22.2013L7.59246 18.9474C8.06779 19.0257 8.55019 19.0657 9.03317 19.0657Z" fill="#9615C1"/>
<path d="M26.8659 20.0262C26.5111 19.2073 25.5616 18.8332 24.7433 19.1861L22.9655 19.9568L22.2796 18.3749C23.7879 17.3707 24.9569 15.9381 25.6381 14.2185C26.5205 11.9889 26.4823 9.54863 25.5281 7.34839C24.1044 4.0598 20.8689 1.93604 17.2856 1.93604C16.5985 1.93604 16.0737 1.98839 15.4107 2.14312C16.7132 2.97203 17.6533 4.11686 18.3069 5.77704C20.0259 6.07884 21.393 7.19367 22.1031 8.83149C22.6596 10.1175 22.682 11.543 22.1672 12.8466C21.6513 14.1497 20.66 15.1745 19.3729 15.7311C18.7075 16.0182 18.008 16.1641 17.2921 16.1641C16.9803 16.1641 16.6726 16.1364 16.3732 16.0829C14.6577 15.7787 13.1829 14.6362 12.4746 13.0008C11.9387 11.763 11.8981 10.3964 12.3546 9.13388C12.3722 9.08446 12.3911 9.03504 12.4105 8.98504C12.5128 8.72736 12.6382 8.4844 12.7758 8.24966C12.1563 7.1972 11.198 6.40123 10.0332 5.98648C9.96439 5.96236 9.89379 5.95118 9.82496 5.93059C9.4767 6.45359 9.17726 7.01424 8.94136 7.61195C8.929 7.64313 8.91783 7.67372 8.90547 7.70431C8.06069 9.90985 8.11129 12.3125 9.05078 14.4827C10.1185 16.9483 12.2052 18.7596 14.6924 19.5109C15.5219 19.7615 16.3961 19.8945 17.2927 19.8945C17.978 19.8945 18.6528 19.8086 19.314 19.6544L20.0011 21.2387L18.2228 22.01C17.4044 22.3641 17.0285 23.3148 17.3827 24.1332C17.6456 24.7432 18.241 25.1062 18.8658 25.1062C19.0799 25.1062 19.297 25.0638 19.5064 24.9727L21.2836 24.2026L21.9407 25.7175C22.2037 26.3269 22.7979 26.6911 23.4232 26.6911C23.6368 26.6911 23.855 26.6481 24.0639 26.5575C24.8827 26.2028 25.2587 25.2521 24.9045 24.4344L24.2474 22.9189L26.0264 22.1488C26.8453 21.7953 27.2212 20.8452 26.8659 20.0262Z" fill="#CF1A8C"/>
</svg>
